<?xml version="1.0" standalone="no"?>
<!DOCTYPE svg PUBLIC "-//W3C//DTD SVG 20010904//EN"
 "http://www.w3.org/TR/2001/REC-SVG-20010904/DTD/svg10.dtd">
<svg version="1.0" xmlns="http://www.w3.org/2000/svg"
 width="360.000000pt" height="360.000000pt" viewBox="0 0 360.000000 360.000000"
 preserveAspectRatio="xMidYMid meet">

<g transform="translate(0.000000,360.000000) scale(0.100000,-0.100000)"
fill="#000000" stroke="none">
<path d="M1869 2986 c21 -23 23 -32 18 -82 -9 -85 0 -109 64 -179 64 -71 79
-113 62 -177 -12 -46 -9 -48 12 -8 24 46 19 114 -11 166 -23 39 -25 51 -19
104 6 50 3 67 -15 105 -24 49 -58 78 -105 89 l-30 8 24 -26z"/>
<path d="M1795 2904 c-34 -34 -45 -64 -45 -122 0 -57 28 -106 72 -130 18 -9
47 -31 65 -48 27 -27 33 -39 33 -76 0 -24 -7 -54 -16 -67 -16 -22 -16 -23 3
-12 27 14 49 49 63 101 20 75 -18 142 -109 192 -19 10 -38 33 -48 55 -14 35
-14 42 0 83 9 24 14 46 13 48 -2 2 -16 -9 -31 -24z"/>
<path d="M1584 2695 c-68 -72 -73 -200 -11 -289 12 -17 49 -42 91 -62 316
-149 706 -13 672 236 -7 47 -51 130 -74 138 -11 3 -11 -1 1 -19 21 -32 31 -90
22 -128 -8 -37 -25 -41 -25 -6 0 33 -25 81 -45 89 -78 30 -146 -47 -111 -125
l15 -34 -6 32 c-8 48 18 83 61 83 42 0 61 -22 61 -72 0 -50 -35 -80 -130 -110
-55 -18 -93 -23 -175 -23 -158 1 -275 44 -320 118 -27 44 -27 131 0 175 26 42
16 41 -26 -3z"/>
<path d="M1343 2392 c-59 -32 -143 -102 -158 -132 -20 -39 -19 -98 3 -140 23
-41 82 -75 117 -66 32 8 32 21 -1 22 -49 3 -80 54 -63 102 10 27 66 62 99 62
69 0 131 -81 110 -145 -15 -45 -89 -111 -139 -125 -59 -16 -50 -24 19 -17 69
6 137 41 170 87 23 32 49 153 50 228 0 55 -29 98 -84 123 -51 23 -82 24 -123
1z"/>
<path d="M1724 2223 c-1 -61 -36 -152 -88 -229 -61 -90 -16 -145 132 -164 132
-17 332 32 401 99 97 92 44 246 -94 274 -24 5 -21 2 13 -13 77 -35 98 -140 40
-206 -42 -48 -65 -55 -179 -56 -118 -1 -153 12 -157 60 -7 74 58 154 190 235
l63 38 -70 -7 c-61 -6 -167 4 -230 21 -18 5 -20 1 -21 -52z"/>
<path d="M2240 2211 c-41 -6 -43 -7 -20 -15 64 -21 92 -41 115 -81 47 -79 28
-153 -57 -230 -97 -88 -242 -138 -398 -138 -109 0 -190 18 -278 63 -58 29
-219 77 -228 67 -3 -2 17 -10 43 -16 74 -19 127 -45 237 -118 160 -106 270
-136 420 -113 75 11 178 46 222 75 29 19 50 19 57 1 3 -8 24 -20 46 -27 51
-15 88 -1 135 52 54 59 61 147 16 194 -19 20 -19 55 0 55 4 0 13 13 20 30 27
66 -21 152 -103 185 -47 19 -158 27 -227 16z"/>
<path d="M2000 2179 c-16 -29 -9 -29 17 -2 16 16 18 23 8 23 -8 0 -19 -9 -25
-21z"/>
<path d="M890 1511 c0 -7 -12 -23 -27 -36 -16 -13 -23 -25 -16 -25 6 0 15 5
18 10 3 6 15 10 26 10 11 0 18 -4 14 -10 -3 -5 -13 -6 -22 -3 -10 4 -14 2 -9
-5 3 -6 -2 -15 -11 -21 -14 -8 -15 -10 -3 -11 19 0 80 37 80 49 0 5 -8 12 -17
14 -14 4 -12 5 5 6 24 1 31 21 8 21 -8 0 -21 3 -30 6 -9 3 -16 1 -16 -5z"/>
<path d="M1097 1488 c-3 -18 -8 -41 -12 -50 -4 -10 -3 -18 3 -18 6 0 14 9 17
20 4 11 15 20 27 20 14 0 18 -5 14 -16 -4 -10 -1 -14 6 -12 7 3 14 14 16 26 3
18 -2 22 -22 22 -19 0 -26 5 -26 20 0 32 -17 23 -23 -12z"/>
<path d="M1192 1481 c-7 -21 -12 -43 -12 -50 0 -19 17 -12 23 9 4 15 14 20 37
20 19 0 30 -5 28 -12 -6 -25 17 -17 24 7 6 24 4 25 -33 25 -32 0 -39 3 -39 20
0 33 -16 23 -28 -19z"/>
<path d="M1347 1492 c-15 -16 -24 -32 -20 -35 7 -8 63 41 63 55 0 15 -16 8
-43 -20z"/>
<path d="M1630 1425 l0 -95 -35 0 c-19 0 -35 -4 -35 -10 0 -6 43 -10 110 -10
67 0 110 4 110 10 0 6 -16 10 -35 10 l-35 0 0 95 c0 57 -4 95 -10 95 -6 0 -10
-38 -10 -95 0 -88 -1 -95 -20 -95 -19 0 -20 7 -20 95 0 57 -4 95 -10 95 -6 0
-10 -38 -10 -95z"/>
<path d="M2490 1495 c0 -16 -6 -25 -15 -25 -8 0 -15 -4 -15 -10 0 -5 7 -10 15
-10 19 0 19 -4 -1 -41 -8 -17 -13 -38 -11 -47 4 -14 6 -13 12 6 13 39 25 24
18 -23 -5 -38 -3 -45 11 -45 13 0 16 11 16 58 0 35 4 52 9 43 5 -8 11 -9 15
-3 3 5 -1 15 -9 22 -19 16 -19 30 0 30 8 0 15 -7 15 -15 0 -9 9 -15 25 -15 23
0 25 -3 25 -50 0 -38 -4 -50 -15 -50 -8 0 -15 -5 -15 -11 0 -6 10 -9 23 -7 19
3 22 10 25 60 3 52 5 57 28 60 49 6 28 23 -33 26 -35 2 -63 7 -63 12 0 6 -7
10 -15 10 -9 0 -15 9 -15 25 0 16 -6 25 -15 25 -9 0 -15 -9 -15 -25z"/>
<path d="M2800 1505 c0 -11 -12 -15 -50 -15 -64 0 -66 -18 -3 -22 36 -2 49 -7
51 -20 3 -15 -4 -18 -37 -18 -23 0 -41 -4 -41 -10 0 -5 16 -10 36 -10 20 0 33
-4 29 -10 -7 -11 42 -46 52 -37 3 4 -5 15 -18 26 l-24 20 53 1 c28 0 52 5 52
10 0 6 -18 10 -40 10 -33 0 -40 3 -40 19 0 16 7 19 45 18 30 -2 45 2 45 11 0
8 -16 12 -45 12 -33 0 -45 4 -45 15 0 8 -4 15 -10 15 -5 0 -10 -7 -10 -15z"/>
<path d="M960 1499 c0 -6 6 -9 13 -6 8 3 20 1 28 -4 10 -6 6 -9 -16 -9 -21 0
-26 -3 -16 -9 9 -6 -6 -18 -53 -42 -65 -33 -86 -52 -44 -41 20 5 21 3 15 -42
l-7 -47 38 7 c20 4 38 11 40 15 2 5 20 2 39 -6 20 -9 39 -12 42 -9 3 4 0 9 -7
11 -10 4 -10 8 -1 19 8 10 8 14 0 14 -22 0 -12 39 12 43 24 4 28 2 -46 30 -24
8 -26 12 -13 19 10 5 24 5 36 -2 21 -11 29 3 9 16 -8 4 -8 9 0 17 23 23 12 37
-29 37 -23 0 -40 -5 -40 -11z m16 -84 c15 -11 16 -14 4 -15 -9 0 -21 5 -28 12
-9 9 -12 9 -12 0 0 -7 -8 -12 -17 -12 -16 1 -16 2 1 15 11 8 23 15 26 15 3 0
15 -7 26 -15z m7 -32 c-13 -2 -35 -2 -50 0 -16 2 -5 4 22 4 28 0 40 -2 28 -4z
m0 -20 c-13 -2 -35 -2 -50 0 -16 2 -5 4 22 4 28 0 40 -2 28 -4z m27 -17 c0 -3
-4 -8 -10 -11 -5 -3 -10 -1 -10 4 0 6 5 11 10 11 6 0 10 -2 10 -4z m-70 -16
c-19 -13 -30 -13 -30 0 0 6 10 10 23 10 18 0 19 -2 7 -10z"/>
<path d="M1420 1493 c0 -9 18 -13 55 -13 37 0 55 4 55 13 0 8 -18 12 -55 12
-37 0 -55 -4 -55 -12z"/>
<path d="M1958 1470 c-27 -27 -30 -36 -25 -72 7 -51 36 -81 78 -81 44 0 69 32
69 90 0 33 -6 50 -25 68 -32 33 -60 31 -97 -5z m92 -35 c15 -44 -4 -88 -40
-93 -29 -5 -50 21 -50 61 0 44 17 67 50 67 24 0 30 -6 40 -35z"/>
<path d="M2138 1470 c-27 -27 -30 -36 -25 -71 9 -67 56 -100 111 -79 22 8 26
16 26 50 0 38 -2 40 -30 40 -16 0 -30 -4 -30 -10 0 -5 7 -10 15 -10 9 0 15 -9
15 -25 0 -20 -5 -25 -23 -25 -49 0 -75 71 -43 115 10 14 21 17 50 12 41 -7 53
16 14 27 -39 10 -49 7 -80 -24z"/>
<path d="M2327 1493 c-22 -6 -47 -54 -47 -92 0 -71 90 -113 132 -62 28 35 24
105 -7 136 -23 24 -40 28 -78 18z m64 -39 c16 -19 15 -79 -1 -99 -18 -21 -57
-19 -70 4 -24 46 -5 111 34 111 13 0 29 -7 37 -16z"/>
<path d="M2560 1490 c0 -5 23 -10 50 -10 28 0 50 5 50 10 0 6 -22 10 -50 10
-27 0 -50 -4 -50 -10z"/>
<path d="M1810 1405 l0 -85 55 0 c30 0 55 5 55 10 0 6 -18 10 -40 10 l-40 0 0
75 c0 60 -3 75 -15 75 -12 0 -15 -16 -15 -85z"/>
<path d="M1353 1430 c-38 -45 -41 -54 -13 -45 18 6 20 2 20 -39 0 -25 5 -46
10 -46 6 0 10 28 10 63 0 36 5 68 12 75 8 8 8 15 3 21 -6 6 -22 -4 -42 -29z"/>
<path d="M1577 1462 c-9 -13 20 -82 34 -82 11 0 5 29 -16 69 -7 13 -15 19 -18
13z"/>
<path d="M1737 1425 c-19 -41 -20 -45 -9 -45 7 0 42 63 42 75 0 17 -19 -1 -33
-30z"/>
<path d="M1217 1409 c-3 -26 -16 -52 -32 -69 -19 -20 -23 -30 -14 -35 12 -8
42 20 51 47 3 7 17 -2 35 -22 38 -43 56 -33 19 10 -14 18 -29 49 -32 71 -8 51
-20 50 -27 -2z"/>
<path d="M1410 1430 c0 -5 16 -10 35 -10 l35 0 0 -50 c0 -43 -3 -50 -20 -50
-11 0 -20 -4 -20 -10 0 -5 14 -10 30 -10 30 0 30 0 30 56 0 47 3 57 20 61 41
11 18 23 -45 23 -37 0 -65 -4 -65 -10z"/>
<path d="M1108 1373 c-2 -32 -2 -60 -1 -63 6 -7 57 27 61 40 3 8 -3 10 -17 5
-19 -6 -21 -3 -21 34 0 62 -18 49 -22 -16z"/>
<path d="M2552 1368 c-12 -33 -9 -49 7 -32 14 13 25 64 14 64 -5 0 -14 -14
-21 -32z"/>
<path d="M2645 1368 c9 -41 14 -50 25 -43 10 6 -10 75 -22 75 -6 0 -6 -15 -3
-32z"/>
<path d="M2713 1350 c-7 -18 -7 -32 -2 -36 12 -7 32 47 22 57 -5 5 -14 -5 -20
-21z"/>
<path d="M2750 1346 c0 -38 12 -46 71 -46 27 0 42 5 46 15 7 20 -6 33 -16 16
-5 -7 -22 -11 -42 -9 -29 2 -34 7 -37 31 -5 39 -22 34 -22 -7z"/>
<path d="M2870 1370 c0 -16 23 -60 32 -60 11 0 10 14 -4 45 -11 25 -28 34 -28
15z"/>
<path d="M1379 1235 c-10 -16 -8 -105 2 -105 5 0 9 11 9 25 0 20 5 25 24 25
19 0 26 -6 29 -27 2 -16 4 -1 4 32 0 33 -2 48 -4 33 -3 -22 -10 -28 -28 -28
-18 0 -24 6 -27 28 -2 15 -6 23 -9 17z"/>
<path d="M1480 1198 c0 -56 11 -70 46 -66 28 3 29 5 30 58 l2 55 -7 -47 c-8
-54 -14 -63 -36 -55 -10 5 -15 20 -15 52 0 25 -4 45 -10 45 -5 0 -10 -19 -10
-42z"/>
<path d="M1594 1215 c-12 -18 -14 -31 -7 -52 8 -23 15 -28 43 -28 28 0 35 5
43 28 7 21 5 34 -7 52 -21 32 -51 32 -72 0z m59 -7 c6 -8 7 -27 3 -42 -9 -38
-50 -33 -54 7 -6 48 28 72 51 35z"/>
<path d="M1704 1214 c-26 -38 -9 -78 34 -82 29 -3 32 -1 32 26 0 19 -5 29 -15
29 -8 0 -15 -4 -15 -9 0 -4 5 -8 10 -8 6 0 10 -7 10 -16 0 -10 -7 -14 -22 -12
-17 2 -24 11 -26 31 -4 36 15 59 41 51 13 -4 17 -2 13 5 -12 19 -45 12 -62
-15z"/>
<path d="M1800 1201 c0 -57 8 -71 40 -71 16 0 30 7 34 16 10 26 7 96 -4 89 -5
-3 -10 -26 -10 -51 0 -36 -3 -44 -19 -44 -21 0 -36 40 -26 70 3 10 1 21 -5 25
-6 4 -10 -9 -10 -34z"/>
<path d="M1916 1224 c-31 -30 -12 -94 27 -94 31 0 47 18 47 55 0 51 -41 73
-74 39z m55 -18 c14 -29 -4 -69 -29 -64 -21 4 -29 67 -10 79 21 13 28 11 39
-15z"/>
<path d="M2018 1234 c-5 -4 -8 -29 -8 -56 l0 -48 38 1 c29 2 31 3 10 6 -25 4
-27 9 -30 55 -2 27 -6 46 -10 42z"/>
<path d="M2094 1215 c-12 -18 -14 -31 -7 -52 8 -23 15 -28 43 -28 28 0 35 5
43 28 7 21 5 34 -7 52 -21 32 -51 32 -72 0z m55 1 c18 -22 10 -70 -13 -74 -32
-7 -50 50 -24 76 16 16 23 15 37 -2z"/>
<path d="M2204 1215 c-12 -18 -14 -31 -7 -52 8 -23 15 -28 44 -28 25 0 35 5
37 19 5 25 -14 44 -30 28 -9 -9 -9 -12 0 -12 7 0 12 -7 12 -15 0 -27 -39 -17
-46 12 -9 33 8 59 35 56 13 -2 20 1 16 7 -11 18 -44 10 -61 -15z"/>
<path d="M2306 1217 c-13 -19 -14 -30 -5 -55 9 -26 16 -32 40 -32 40 0 60 40
38 78 -20 36 -53 40 -73 9z m53 -1 c18 -22 10 -70 -13 -74 -32 -7 -50 50 -24
76 16 16 23 15 37 -2z"/>
<path d="M1100 1190 c0 -6 42 -10 105 -10 63 0 105 4 105 10 0 6 -42 10 -105
10 -63 0 -105 -4 -105 -10z"/>
<path d="M2450 1190 c0 -6 42 -10 106 -10 67 0 103 4 99 10 -3 6 -50 10 -106
10 -59 0 -99 -4 -99 -10z"/>
</g>
</svg>
